<svg width="36" height="44" viewBox="0 0 36 44" fill="none" xmlns="http://www.w3.org/2000/svg">
<path d="M9.08505 37.289C8.84308 37.2893 8.60605 37.2206 8.40177 37.0909C3.16931 33.7955 -0.00366944 28.0434 3.18474e-06 21.8598C3.18474e-06 11.9343 8.07551 3.85876 18.001 3.85876C18.7085 3.85876 19.2821 4.43238 19.2821 5.13991C19.2821 5.84745 18.7085 6.42106 18.001 6.42106C9.48819 6.42106 2.5623 13.3469 2.5623 21.8598C2.54795 27.1681 5.27312 32.1082 9.7709 34.9275C10.369 35.3055 10.5474 36.0968 10.1694 36.6949C10.054 36.8775 9.89434 37.028 9.7052 37.1323C9.51606 37.2366 9.30362 37.2914 9.08762 37.2916L9.08505 37.289ZM18.001 39.8616C17.2935 39.8616 16.7198 39.288 16.7198 38.5804C16.7198 37.8729 17.2935 37.2993 18.001 37.2993C26.5147 37.2993 33.4405 30.3726 33.4405 21.8598C33.4549 16.5514 30.7297 11.6113 26.2319 8.79204C25.6412 8.40266 25.4779 7.60809 25.8672 7.01731C26.2456 6.44327 27.0097 6.27023 27.5985 6.62519C32.8313 9.9203 36.0046 15.6725 36.0011 21.8563C36.0028 31.7861 27.929 39.8616 18.001 39.8616Z" fill="white"/>
<path d="M16.0722 10.2792C15.3647 10.279 14.7912 9.70533 14.7913 8.99779C14.7914 8.65838 14.9262 8.33287 15.166 8.0927L18.1186 5.14008L15.166 2.18746C14.6655 1.68722 14.6653 0.875996 15.1656 0.375494C15.6658 -0.125008 16.4771 -0.125179 16.9776 0.375067L20.8398 4.23389C21.34 4.73413 21.34 5.54518 20.8398 6.04543L16.9776 9.90767C16.8586 10.0262 16.7173 10.12 16.562 10.1837C16.4066 10.2475 16.2402 10.2799 16.0722 10.2792ZM19.9302 43.7197C19.762 43.7201 19.5954 43.6872 19.44 43.6228C19.2846 43.5585 19.1435 43.464 19.0248 43.3448L15.166 39.486C14.6659 38.9857 14.6659 38.1747 15.166 37.6744L19.0248 33.8156C19.5253 33.3144 20.3373 33.3138 20.8385 33.8143C21.3397 34.3148 21.3403 35.1268 20.8398 35.628L17.8872 38.5806L20.8398 41.5332C21.3398 42.0339 21.3393 42.8451 20.8387 43.345C20.5985 43.5849 20.273 43.7196 19.9336 43.7197H19.9302Z" fill="white"/>
</svg>
