<svg width="18" height="20" viewBox="0 0 18 20" fill='none' xmlns="http://www.w3.org/2000/svg">
<path d="M1.21895 5.85938L2.2568 18.3881C2.33117 19.2916 3.10078 20 4.00773 20H13.5704C14.4774 20 15.247 19.2916 15.3214 18.3881L16.3592 5.85938H1.21895ZM5.85883 17.6562C5.55211 17.6562 5.29406 17.4177 5.27461 17.1069L4.68867 7.65379C4.66863 7.33051 4.9141 7.05242 5.23684 7.03238C5.57156 7.00891 5.83766 7.25727 5.85824 7.58055L6.44418 17.0337C6.46492 17.3684 6.20004 17.6562 5.85883 17.6562ZM9.375 17.0703C9.375 17.3942 9.11293 17.6562 8.78906 17.6562C8.4652 17.6562 8.20312 17.3942 8.20312 17.0703V7.61719C8.20312 7.29332 8.4652 7.03125 8.78906 7.03125C9.11293 7.03125 9.375 7.29332 9.375 7.61719V17.0703ZM12.8895 7.65383L12.3035 17.107C12.2843 17.4145 12.0279 17.6709 11.6821 17.6551C11.3594 17.6351 11.1139 17.357 11.1339 17.0337L11.7199 7.58059C11.7399 7.2573 12.0232 7.02211 12.3413 7.03242C12.664 7.05246 12.9095 7.33055 12.8895 7.65383ZM16.4062 2.34375H12.8906V1.75781C12.8906 0.788516 12.1021 0 11.1328 0H6.44531C5.47602 0 4.6875 0.788516 4.6875 1.75781V2.34375H1.17188C0.524648 2.34375 0 2.8684 0 3.51562C0 4.16277 0.524648 4.6875 1.17188 4.6875H16.4062C17.0535 4.6875 17.5781 4.16277 17.5781 3.51562C17.5781 2.8684 17.0535 2.34375 16.4062 2.34375ZM11.7188 2.34375H5.85938V1.75781C5.85938 1.43453 6.12203 1.17188 6.44531 1.17188H11.1328C11.4561 1.17188 11.7188 1.43453 11.7188 1.75781V2.34375Z" fill='currentColor'/>
</svg>
