<svg width="23" height="24" viewBox="0 0 23 24" fill="none" xmlns="http://www.w3.org/2000/svg">
<path d="M1.28605 13.7451L1.73691 13.4846C2.27348 13.1751 2.59405 12.6197 2.59405 12C2.59405 11.3803 2.27348 10.8249 1.73691 10.5154L1.28605 10.2549C0.993538 10.0861 0.737144 9.86134 0.531523 9.59345C0.325903 9.32556 0.175083 9.01978 0.0876827 8.69357C0.000282288 8.36737 -0.0219879 8.02715 0.0221481 7.69234C0.0662842 7.35753 0.175959 7.03469 0.344908 6.74229L1.20205 5.25771C1.54354 4.66765 2.10517 4.23716 2.7637 4.06072C3.42223 3.88427 4.12386 3.97629 4.71462 4.31657L5.16548 4.57629C5.42542 4.7287 5.72129 4.80905 6.02262 4.80905C6.32395 4.80905 6.61983 4.7287 6.87977 4.57629C7.14155 4.42718 7.35892 4.21108 7.50955 3.95018C7.66019 3.68927 7.73866 3.39298 7.73691 3.09171V2.57143C7.73691 1.15371 8.89062 0 10.3083 0H12.0226C13.4403 0 14.5941 1.15371 14.5941 2.57143V3.09257C14.5923 3.39383 14.6708 3.69013 14.8214 3.95103C14.972 4.21193 15.1894 4.42804 15.4512 4.57714C15.7112 4.7293 16.0071 4.8095 16.3083 4.8095C16.6096 4.8095 16.9055 4.7293 17.1655 4.57714L17.6163 4.31657C18.2073 3.97648 18.909 3.88457 19.5676 4.06099C20.2262 4.23741 20.788 4.66776 21.1298 5.25771L21.9869 6.74229C22.156 7.03467 22.2657 7.3575 22.3099 7.69234C22.3541 8.02717 22.3319 8.36743 22.2445 8.69367C22.1571 9.0199 22.0062 9.3257 21.8005 9.59358C21.5948 9.86146 21.3384 10.0862 21.0458 10.2549L20.5941 10.5154C20.0575 10.8249 19.7369 11.3803 19.7369 12C19.7369 12.6197 20.0575 13.1751 20.5941 13.4846L21.0449 13.7451C21.3375 13.9138 21.594 14.1385 21.7997 14.4064C22.0054 14.6743 22.1562 14.9801 22.2436 15.3063C22.331 15.6326 22.3533 15.9728 22.3091 16.3077C22.2649 16.6425 22.1551 16.9653 21.9861 17.2577L21.1289 18.7423C20.7873 19.3322 20.2256 19.7625 19.5672 19.9389C18.9087 20.1154 18.2072 20.0235 17.6163 19.6834L17.1655 19.4237C16.9055 19.2713 16.6097 19.1909 16.3083 19.1909C16.007 19.1909 15.7111 19.2713 15.4512 19.4237C15.1894 19.5728 14.972 19.7889 14.8214 20.0498C14.6708 20.3107 14.5923 20.607 14.5941 20.9083V21.4286C14.5941 22.8463 13.4403 24 12.0226 24H10.3083C8.89062 24 7.73691 22.8463 7.73691 21.4286V20.9074C7.73691 20.2877 7.41634 19.7331 6.87977 19.4229C6.61974 19.2707 6.3239 19.1905 6.02262 19.1905C5.72135 19.1905 5.42551 19.2707 5.16548 19.4229L4.71462 19.6834C4.12375 20.0233 3.42228 20.115 2.76389 19.9386C2.10549 19.7622 1.54386 19.332 1.20205 18.7423L0.344908 17.2577C0.175846 16.9653 0.0660801 16.6425 0.021883 16.3077C-0.0223122 15.9728 -7.05719e-05 15.6326 0.0873394 15.3063C0.174747 14.9801 0.325609 14.6743 0.531294 14.4064C0.73698 14.1385 0.993454 13.9138 1.28605 13.7451ZM11.1655 16.2857C13.5286 16.2857 15.4512 14.3631 15.4512 12C15.4512 9.63686 13.5286 7.71429 11.1655 7.71429C8.80234 7.71429 6.87977 9.63686 6.87977 12C6.87977 14.3631 8.80234 16.2857 11.1655 16.2857Z" fill="#C2C2C2"/>
</svg>
